<svg width="16" height="16" viewBox="0 0 16 16" fill="none" xmlns="http://www.w3.org/2000/svg">
<g clip-path="url(#clip0_379_949)">
<rect width="16" height="16" rx="8" fill="white"/>
<path fill-rule="evenodd" clip-rule="evenodd" d="M3 4.42143C3 4.18868 3.18868 4 3.42143 4H5.10713C6.11306 4 7.07778 4.3996 7.78908 5.1109C8.46887 5.79069 8.86397 6.70197 8.89763 7.65946C8.98196 7.55491 9.07216 7.45444 9.16803 7.35858C9.87932 6.64728 10.844 6.24768 11.85 6.24768H13.5357C13.7684 6.24768 13.9571 6.43636 13.9571 6.66911V7.23101C13.9571 8.23693 13.5575 9.20166 12.8462 9.91295C12.1349 10.6242 11.1702 11.0239 10.1643 11.0239H8.89998V13.4119C8.89998 13.6447 8.7113 13.8333 8.47856 13.8333C8.24581 13.8333 8.05713 13.6447 8.05713 13.4119V10.6024V10.0405V9.33807H6.79284C5.78692 9.33807 4.82219 8.93847 4.1109 8.22718C3.3996 7.51588 3 6.55116 3 5.54523V4.42143ZM8.05713 7.79524V8.49522H6.79284C6.01046 8.49522 5.26012 8.18442 4.70689 7.63119C4.15366 7.07796 3.84285 6.32762 3.84285 5.54523V4.84285H5.10713C5.88952 4.84285 6.63986 5.15366 7.19309 5.70689C7.74632 6.26012 8.05712 7.01046 8.05712 7.79284C8.05712 7.79364 8.05712 7.79444 8.05713 7.79524ZM8.89998 10.0388C8.89998 10.0394 8.89998 10.04 8.89998 10.0405L8.89998 10.181H10.1643C10.9466 10.181 11.697 9.8702 12.2502 9.31697C12.8034 8.76374 13.1143 8.0134 13.1143 7.23101V7.09053H11.85C11.0676 7.09053 10.3172 7.40134 9.76401 7.95457C9.21118 8.5074 8.90043 9.25706 8.89998 10.0388Z" fill="#5C9738"/>
</g>
<defs>
<clipPath id="clip0_379_949">
<rect width="16" height="16" rx="8" fill="white"/>
</clipPath>
</defs>
</svg>
