<svg width="57" height="27" viewBox="0 0 57 27" fill="none" xmlns="http://www.w3.org/2000/svg">
<path d="M53.1648 19.1953H50.9978V14.8099L50.5952 14.5591V13.8338L52.0377 13.4339H53.1782V14.3083L53.2587 14.2066C53.3124 14.1343 53.3907 14.0485 53.4936 13.949C53.6009 13.8496 53.7194 13.7525 53.8492 13.6576C53.9789 13.5582 54.1332 13.4746 54.3121 13.4068C54.4955 13.3345 54.6744 13.2983 54.8488 13.2983C55.4616 13.2983 55.8932 13.4678 56.1437 13.8067C56.3986 14.1456 56.5261 14.7127 56.5261 15.508C56.5261 15.5351 56.5261 15.5758 56.5261 15.63C56.5216 15.6842 56.5194 15.7272 56.5194 15.7588V19.1953H54.3054V15.5622C54.3188 15.1375 54.1399 14.9251 53.7686 14.9251C53.7418 14.9251 53.715 14.9273 53.6881 14.9319C53.6658 14.9364 53.6434 14.9409 53.621 14.9454C53.6032 14.9499 53.5808 14.959 53.554 14.9725C53.5316 14.9816 53.5115 14.9906 53.4936 14.9996C53.4757 15.0042 53.4556 15.0155 53.4332 15.0335C53.4108 15.0471 53.3929 15.0584 53.3795 15.0674C53.3661 15.0765 53.346 15.0923 53.3191 15.1149C53.2968 15.133 53.2789 15.1465 53.2655 15.1555C53.2565 15.1646 53.2386 15.1804 53.2118 15.203C53.1894 15.2211 53.1738 15.2346 53.1648 15.2437V19.1953Z" fill="white"/>
<path d="M48.2311 15.691C48.2311 15.1171 48.202 14.7104 48.1438 14.471C48.0857 14.2315 47.9783 14.1117 47.8218 14.1117C47.6876 14.1117 47.578 14.1366 47.4931 14.1863C47.4081 14.2315 47.3455 14.306 47.3052 14.41C47.2649 14.5094 47.2381 14.6133 47.2247 14.7217C47.2157 14.8257 47.2113 14.959 47.2113 15.1217V15.691H48.2311ZM47.6943 19.3376C47.1934 19.3376 46.7573 19.2608 46.386 19.1072C46.0193 18.9536 45.7285 18.7389 45.5139 18.4633C45.3036 18.1876 45.1493 17.8781 45.0509 17.5347C44.9525 17.1867 44.9033 16.8004 44.9033 16.3756C44.9033 15.3634 45.1583 14.5975 45.6682 14.0778C46.1781 13.5582 46.8915 13.2983 47.8084 13.2983C48.6895 13.2983 49.3202 13.5085 49.7004 13.9287C50.0806 14.3444 50.2706 15.0155 50.2706 15.9418V16.6942H47.2046V16.823C47.2046 17.0896 47.2314 17.3087 47.2851 17.4804C47.3432 17.6522 47.426 17.7787 47.5333 17.86C47.6407 17.9414 47.7502 17.9956 47.8621 18.0227C47.9739 18.0498 48.1103 18.0634 48.2713 18.0634C48.4279 18.0634 48.5956 18.043 48.7745 18.0024C48.9579 17.9617 49.1413 17.8984 49.3247 17.8126C49.5125 17.7267 49.6691 17.625 49.7943 17.5076L50.1901 18.1921C50.0246 18.4633 49.7809 18.6915 49.4588 18.8767C49.1413 19.0575 48.8349 19.1795 48.5397 19.2428C48.2445 19.306 47.9627 19.3376 47.6943 19.3376Z" fill="white"/>
<path d="M42.4523 15.691C42.4523 15.1171 42.4232 14.7104 42.365 14.471C42.3069 14.2315 42.1995 14.1117 42.043 14.1117C41.9088 14.1117 41.7992 14.1366 41.7142 14.1863C41.6293 14.2315 41.5666 14.306 41.5264 14.41C41.4861 14.5094 41.4593 14.6133 41.4459 14.7217C41.4369 14.8257 41.4325 14.959 41.4325 15.1217V15.691H42.4523ZM41.9155 19.3376C41.4146 19.3376 40.9785 19.2608 40.6072 19.1072C40.2405 18.9536 39.9497 18.7389 39.735 18.4633C39.5248 18.1876 39.3705 17.8781 39.2721 17.5347C39.1737 17.1867 39.1245 16.8004 39.1245 16.3756C39.1245 15.3634 39.3795 14.5975 39.8894 14.0778C40.3993 13.5582 41.1127 13.2983 42.0296 13.2983C42.9107 13.2983 43.5414 13.5085 43.9216 13.9287C44.3017 14.3444 44.4918 15.0155 44.4918 15.9418V16.6942H41.4258V16.823C41.4258 17.0896 41.4526 17.3087 41.5063 17.4804C41.5644 17.6522 41.6472 17.7787 41.7545 17.86C41.8618 17.9414 41.9714 17.9956 42.0833 18.0227C42.1951 18.0498 42.3315 18.0634 42.4925 18.0634C42.6491 18.0634 42.8168 18.043 42.9957 18.0024C43.1791 17.9617 43.3625 17.8984 43.5458 17.8126C43.7337 17.7267 43.8902 17.625 44.0155 17.5076L44.4113 18.1921C44.2458 18.4633 44.0021 18.6915 43.68 18.8767C43.3625 19.0575 43.0561 19.1795 42.7609 19.2428C42.4657 19.306 42.1839 19.3376 41.9155 19.3376Z" fill="white"/>
<path d="M37.1844 19.1953H35.0173V14.8099L34.6147 14.5591V13.7931L36.0572 13.4339H36.6007L36.7952 15.0471C36.9786 13.94 37.5668 13.3864 38.5597 13.3864C38.6716 13.3864 38.7878 13.4068 38.9086 13.4474L38.6805 15.8605C38.5866 15.7746 38.3808 15.7317 38.0633 15.7317C37.607 15.7317 37.3141 15.8537 37.1844 16.0977V19.1953Z" fill="white"/>
<path d="M32.9923 18.4768C32.4242 19.0507 31.7488 19.3376 30.9661 19.3376C30.4115 19.3376 29.9306 19.2405 29.5236 19.0462C29.1211 18.8519 28.8013 18.5717 28.5642 18.2057C28.3272 17.8397 28.1527 17.4217 28.0409 16.9517C27.9336 16.4818 27.8799 15.9463 27.8799 15.3453C27.8799 14.898 27.9022 14.4958 27.947 14.1388C27.9962 13.7818 28.0744 13.4407 28.1818 13.1153C28.2891 12.79 28.4367 12.5098 28.6246 12.2748C28.8125 12.0353 29.0428 11.8275 29.3156 11.6513C29.5885 11.475 29.9195 11.344 30.3086 11.2581C30.6977 11.1677 31.1405 11.1226 31.637 11.1226C31.8607 11.1226 32.0731 11.1361 32.2744 11.1632C32.4801 11.1903 32.6546 11.2242 32.7977 11.2649C32.9408 11.301 33.075 11.3485 33.2002 11.4072C33.33 11.4615 33.4306 11.5112 33.5022 11.5564C33.5782 11.597 33.6475 11.6422 33.7101 11.6919C33.7728 11.7416 33.8108 11.7755 33.8242 11.7936C33.8421 11.8117 33.8555 11.8252 33.8645 11.8343L33.7638 13.3932H32.5427L32.1603 12.4917C32.0619 12.4375 31.9031 12.4104 31.684 12.4104C31.5051 12.4104 31.3575 12.4262 31.2412 12.4578C31.1249 12.4895 31.0086 12.5573 30.8923 12.6612C30.7805 12.7606 30.691 12.9075 30.6239 13.1018C30.5613 13.2916 30.5099 13.5514 30.4696 13.8813C30.4294 14.2066 30.4092 14.6043 30.4092 15.0742C30.4092 16.0548 30.4607 16.7823 30.5635 17.2568C30.6709 17.7312 30.8833 17.9685 31.2009 17.9685C31.3575 17.9685 31.4894 17.9549 31.5968 17.9278C31.7041 17.8962 31.8047 17.8419 31.8987 17.7651C31.9926 17.6838 32.0619 17.5663 32.1067 17.4127C32.1514 17.2545 32.1737 17.0534 32.1737 16.8094V16.118L31.2881 15.9147V14.532H34.2737L34.267 19.1953H33.0728L32.9923 18.4768Z" fill="white"/>
<path d="M26.0203 19.1953H23.8532V14.8099L23.4507 14.5591V13.7931L24.8932 13.4339H25.4366L25.6312 15.0471C25.8145 13.94 26.4027 13.3864 27.3957 13.3864C27.5075 13.3864 27.6238 13.4068 27.7445 13.4474L27.5164 15.8605C27.4225 15.7746 27.2168 15.7317 26.8992 15.7317C26.443 15.7317 26.15 15.8537 26.0203 16.0977V19.1953Z" fill="white"/>
<path d="M21.0865 15.691C21.0865 15.1171 21.0575 14.7104 20.9993 14.471C20.9412 14.2315 20.8338 14.1117 20.6773 14.1117C20.5431 14.1117 20.4335 14.1366 20.3485 14.1863C20.2635 14.2315 20.2009 14.306 20.1607 14.41C20.1204 14.5094 20.0936 14.6133 20.0802 14.7217C20.0712 14.8257 20.0667 14.959 20.0667 15.1217V15.691H21.0865ZM20.5498 19.3376C20.0488 19.3376 19.6128 19.2608 19.2415 19.1072C18.8747 18.9536 18.584 18.7389 18.3693 18.4633C18.1591 18.1876 18.0048 17.8781 17.9064 17.5347C17.808 17.1867 17.7588 16.8004 17.7588 16.3756C17.7588 15.3634 18.0137 14.5975 18.5236 14.0778C19.0335 13.5582 19.7469 13.2983 20.6639 13.2983C21.545 13.2983 22.1757 13.5085 22.5558 13.9287C22.936 14.3444 23.1261 15.0155 23.1261 15.9418V16.6942H20.06V16.823C20.06 17.0896 20.0869 17.3087 20.1405 17.4804C20.1987 17.6522 20.2814 17.7787 20.3888 17.86C20.4961 17.9414 20.6057 17.9956 20.7175 18.0227C20.8293 18.0498 20.9658 18.0634 21.1268 18.0634C21.2833 18.0634 21.4511 18.043 21.63 18.0024C21.8134 17.9617 21.9967 17.8984 22.1801 17.8126C22.368 17.7267 22.5245 17.625 22.6498 17.5076L23.0456 18.1921C22.8801 18.4633 22.6363 18.6915 22.3143 18.8767C21.9967 19.0575 21.6904 19.1795 21.3952 19.2428C21.1 19.306 20.8182 19.3376 20.5498 19.3376Z" fill="white"/>
<path d="M13.8724 19.1953L11.8999 13.4339H14.3085L14.7379 15.5148L15.0465 17.311L15.3887 15.5148L15.8851 13.4339H17.6966L15.9858 19.1953H13.8724Z" fill="white"/>
<path d="M11.8877 19.1953H7.13086V11.2513H11.787L11.6528 12.851L9.35159 12.7832V14.3151H11.1631V15.9011L9.35159 15.7656V17.5686L11.8877 17.5008V19.1953Z" fill="white"/>
<g clip-path="url(#clip0_303_1956)">
<path fill-rule="evenodd" clip-rule="evenodd" d="M1.40918 2.53125C1.40918 2.26913 1.61951 2.05664 1.87896 2.05664H3.75808C4.87942 2.05664 5.95483 2.50667 6.74774 3.30773C7.54065 4.10879 7.9861 5.19526 7.9861 6.32812C7.9861 6.59024 7.77577 6.80273 7.51632 6.80273C7.25687 6.80273 7.04654 6.59024 7.04654 6.32812C7.04654 5.44701 6.70008 4.60197 6.08337 3.97893C5.46667 3.35588 4.63023 3.00586 3.75808 3.00586H2.34874V3.79688C2.34874 4.67799 2.6952 5.52303 3.31191 6.14607C3.92861 6.76912 4.76505 7.11914 5.6372 7.11914H7.51632C7.77577 7.11914 7.9861 7.33163 7.9861 7.59375C7.9861 7.85587 7.77577 8.06836 7.51632 8.06836H5.6372C4.51586 8.06836 3.44045 7.61833 2.64754 6.81727C1.85463 6.01621 1.40918 4.92974 1.40918 3.79688V2.53125Z" fill="white"/>
<path fill-rule="evenodd" clip-rule="evenodd" d="M11.2749 5.53711C10.4027 5.53711 9.56631 5.88713 8.9496 6.51018C8.3329 7.13322 7.98644 7.97826 7.98644 8.85938C7.98644 8.91485 7.97702 8.9681 7.9597 9.01758H9.39578C10.2679 9.01758 11.1044 8.66755 11.7211 8.04451C12.3378 7.42146 12.6842 6.57643 12.6842 5.69531V5.53711H11.2749ZM7.1665 9.17578C7.09211 9.25975 7.04688 9.37063 7.04688 9.49219C7.04688 9.75431 7.2572 9.9668 7.51666 9.9668H9.39578C10.5171 9.9668 11.5925 9.51677 12.3854 8.71571C13.1783 7.91465 13.6238 6.82818 13.6238 5.69531V5.0625C13.6238 4.80038 13.4135 4.58789 13.154 4.58789H11.2749C10.1536 4.58789 9.07814 5.03792 8.28523 5.83898C7.49233 6.64004 7.04688 7.72651 7.04688 8.85938C7.04688 8.98093 7.09211 9.09181 7.1665 9.17578Z" fill="white"/>
<path fill-rule="evenodd" clip-rule="evenodd" d="M7.51665 5.85352C7.77611 5.85352 7.98643 6.06601 7.98643 6.32812V12.6562C7.98643 12.9184 7.77611 13.1309 7.51665 13.1309C7.2572 13.1309 7.04688 12.9184 7.04688 12.6562V6.32812C7.04688 6.06601 7.2572 5.85352 7.51665 5.85352Z" fill="white"/>
</g>
<defs>
<clipPath id="clip0_303_1956">
<rect width="15.033" height="15.1875" fill="white"/>
</clipPath>
</defs>
</svg>
