<svg width="178" height="84" viewBox="0 0 178 84" fill="none" xmlns="http://www.w3.org/2000/svg">
<path d="M166.023 59.7187H159.256V46.0751L157.999 45.2948V43.0385L162.503 41.7943H166.065V44.5146L166.316 44.1983C166.484 43.9733 166.728 43.7062 167.05 43.397C167.385 43.0877 167.755 42.7854 168.16 42.4902C168.565 42.1809 169.047 41.9208 169.606 41.71C170.178 41.485 170.737 41.3726 171.282 41.3726C173.195 41.3726 174.543 41.8997 175.325 42.9541C176.121 44.0085 176.52 45.7728 176.52 48.2471C176.52 48.3314 176.52 48.458 176.52 48.6267C176.506 48.7954 176.499 48.9289 176.499 49.0273V59.7187H169.585V48.4158C169.627 47.0943 169.068 46.4336 167.909 46.4336C167.825 46.4336 167.741 46.4406 167.657 46.4546C167.587 46.4687 167.517 46.4828 167.448 46.4968C167.392 46.5109 167.322 46.539 167.238 46.5812C167.168 46.6093 167.105 46.6374 167.05 46.6655C166.994 46.6796 166.931 46.7147 166.861 46.771C166.791 46.8131 166.735 46.8483 166.693 46.8764C166.651 46.9045 166.589 46.9537 166.505 47.024C166.435 47.0802 166.379 47.1224 166.337 47.1505C166.309 47.1786 166.253 47.2279 166.17 47.2981C166.1 47.3544 166.051 47.3966 166.023 47.4247V59.7187Z" fill="#009988"/>
<path d="M150.617 48.8164C150.617 47.031 150.526 45.7658 150.344 45.0207C150.163 44.2756 149.827 43.9031 149.338 43.9031C148.919 43.9031 148.577 43.9804 148.312 44.135C148.046 44.2756 147.851 44.5076 147.725 44.8309C147.599 45.1402 147.516 45.4635 147.474 45.8009C147.446 46.1243 147.432 46.539 147.432 47.0451V48.8164H150.617ZM148.94 60.1615C147.376 60.1615 146.014 59.9225 144.855 59.4445C143.71 58.9666 142.802 58.2988 142.131 57.4412C141.475 56.5837 140.993 55.6207 140.686 54.5522C140.378 53.4698 140.225 52.2678 140.225 50.9463C140.225 47.7972 141.021 45.4143 142.613 43.7976C144.205 42.1809 146.433 41.3726 149.297 41.3726C152.048 41.3726 154.018 42.0263 155.205 43.3337C156.392 44.6271 156.986 46.7147 156.986 49.5967V51.9374H147.411V52.3381C147.411 53.1675 147.495 53.8493 147.662 54.3835C147.844 54.9178 148.102 55.3114 148.438 55.5644C148.773 55.8175 149.115 55.9862 149.464 56.0705C149.813 56.1549 150.239 56.1971 150.742 56.1971C151.231 56.1971 151.755 56.1338 152.314 56.0073C152.886 55.8808 153.459 55.6839 154.032 55.4168C154.618 55.1497 155.107 54.8334 155.498 54.4679L156.734 56.5977C156.218 57.4412 155.456 58.1512 154.451 58.7276C153.459 59.2899 152.502 59.6695 151.58 59.8663C150.658 60.0631 149.778 60.1615 148.94 60.1615Z" fill="#009988"/>
<path d="M132.571 48.8164C132.571 47.031 132.48 45.7658 132.298 45.0207C132.117 44.2756 131.781 43.9031 131.293 43.9031C130.874 43.9031 130.531 43.9804 130.266 44.135C130.001 44.2756 129.805 44.5076 129.679 44.8309C129.554 45.1402 129.47 45.4635 129.428 45.8009C129.4 46.1243 129.386 46.539 129.386 47.0451V48.8164H132.571ZM130.894 60.1615C129.33 60.1615 127.968 59.9225 126.809 59.4445C125.664 58.9666 124.756 58.2988 124.085 57.4412C123.429 56.5837 122.947 55.6207 122.64 54.5522C122.332 53.4698 122.179 52.2678 122.179 50.9463C122.179 47.7972 122.975 45.4143 124.567 43.7976C126.159 42.1809 128.387 41.3726 131.251 41.3726C134.002 41.3726 135.972 42.0263 137.159 43.3337C138.346 44.6271 138.94 46.7147 138.94 49.5967V51.9374H129.365V52.3381C129.365 53.1675 129.449 53.8493 129.616 54.3835C129.798 54.9178 130.056 55.3114 130.392 55.5644C130.727 55.8175 131.069 55.9862 131.418 56.0705C131.767 56.1549 132.193 56.1971 132.696 56.1971C133.185 56.1971 133.709 56.1338 134.268 56.0073C134.84 55.8808 135.413 55.6839 135.986 55.4168C136.572 55.1497 137.061 54.8334 137.452 54.4679L138.688 56.5977C138.172 57.4412 137.41 58.1512 136.405 58.7276C135.413 59.2899 134.456 59.6695 133.534 59.8663C132.613 60.0631 131.733 60.1615 130.894 60.1615Z" fill="#009988"/>
<path d="M116.12 59.7187H109.353V46.0751L108.096 45.2949V42.912L112.6 41.7943H114.297L114.905 46.8132C115.478 43.3689 117.314 41.6467 120.415 41.6467C120.764 41.6467 121.127 41.71 121.505 41.8365L120.792 49.3437C120.499 49.0766 119.856 48.943 118.865 48.943C117.44 48.943 116.525 49.3226 116.12 50.0817V59.7187Z" fill="#009988"/>
<path d="M103.028 57.4835C101.254 59.2689 99.145 60.1616 96.7006 60.1616C94.9687 60.1616 93.4671 59.8593 92.1961 59.2548C90.939 58.6503 89.9403 57.7787 89.2 56.64C88.4597 55.5012 87.915 54.2008 87.5658 52.7388C87.2306 51.2767 87.063 49.6108 87.063 47.741C87.063 46.3493 87.1328 45.0981 87.2725 43.9875C87.4261 42.8768 87.6706 41.8154 88.0058 40.8032C88.341 39.791 88.802 38.9194 89.3886 38.1884C89.9752 37.4433 90.6946 36.7966 91.5466 36.2483C92.3986 35.7001 93.4322 35.2924 94.6474 35.0253C95.8626 34.7441 97.2454 34.6035 98.7958 34.6035C99.4942 34.6035 100.158 34.6457 100.786 34.73C101.429 34.8144 101.973 34.9198 102.42 35.0464C102.867 35.1588 103.286 35.3064 103.677 35.4892C104.083 35.6579 104.397 35.8125 104.62 35.9531C104.858 36.0796 105.074 36.2202 105.27 36.3749C105.465 36.5295 105.584 36.6349 105.626 36.6912C105.682 36.7474 105.724 36.7896 105.752 36.8177L105.437 41.6678H101.624L100.43 38.8632C100.123 38.6945 99.6268 38.6101 98.9424 38.6101C98.3837 38.6101 97.9228 38.6593 97.5596 38.7578C97.1965 38.8562 96.8333 39.067 96.4702 39.3904C96.121 39.6997 95.8416 40.1566 95.6321 40.7611C95.4366 41.3515 95.2759 42.1599 95.1502 43.1861C95.0245 44.1983 94.9617 45.4355 94.9617 46.8975C94.9617 49.9482 95.1223 52.2116 95.4435 53.6877C95.7788 55.1638 96.4422 55.9019 97.4339 55.9019C97.9228 55.9019 98.3348 55.8597 98.6701 55.7754C99.0053 55.677 99.3196 55.5083 99.6129 55.2693C99.9062 55.0162 100.123 54.6507 100.262 54.1727C100.402 53.6807 100.472 53.0551 100.472 52.2959V50.145L97.7063 49.5124V45.2105H107.03L107.009 59.7187H103.279L103.028 57.4835Z" fill="#009988"/>
<path d="M81.2558 59.7187H74.4885V46.0751L73.2314 45.2949V42.912L77.736 41.7943H79.4331L80.0407 46.8132C80.6133 43.3689 82.4501 41.6467 85.5509 41.6467C85.9001 41.6467 86.2632 41.71 86.6403 41.8365L85.928 49.3437C85.6347 49.0766 84.9922 48.943 84.0005 48.943C82.5758 48.943 81.6609 49.3226 81.2558 50.0817V59.7187Z" fill="#5C9738"/>
<path d="M65.8494 48.8164C65.8494 47.031 65.7586 45.7658 65.577 45.0207C65.3955 44.2756 65.0602 43.9031 64.5714 43.9031C64.1524 43.9031 63.8101 43.9804 63.5448 44.135C63.2794 44.2756 63.0838 44.5076 62.9581 44.8309C62.8324 45.1402 62.7486 45.4635 62.7067 45.8009C62.6788 46.1243 62.6648 46.539 62.6648 47.0451V48.8164H65.8494ZM64.1733 60.1615C62.6089 60.1615 61.2471 59.9225 60.0878 59.4445C58.9424 58.9666 58.0345 58.2988 57.3641 57.4412C56.7076 56.5837 56.2257 55.6207 55.9185 54.5522C55.6112 53.4698 55.4575 52.2678 55.4575 50.9463C55.4575 47.7972 56.2537 45.4143 57.846 43.7976C59.4383 42.1809 61.6661 41.3726 64.5295 41.3726C67.2811 41.3726 69.2505 42.0263 70.4378 43.3337C71.625 44.6271 72.2186 46.7147 72.2186 49.5967V51.9374H62.6439V52.3381C62.6439 53.1675 62.7277 53.8493 62.8953 54.3835C63.0768 54.9178 63.3352 55.3114 63.6705 55.5644C64.0057 55.8175 64.3479 55.9862 64.6971 56.0705C65.0463 56.1549 65.4723 56.1971 65.9751 56.1971C66.464 56.1971 66.9878 56.1338 67.5465 56.0073C68.1192 55.8808 68.6918 55.6839 69.2645 55.4168C69.8511 55.1497 70.34 54.8334 70.7311 54.4679L71.9672 56.5977C71.4504 57.4412 70.6892 58.1512 69.6835 58.7276C68.6918 59.2899 67.735 59.6695 66.8132 59.8663C65.8913 60.0631 65.0114 60.1615 64.1733 60.1615Z" fill="#5C9738"/>
<path d="M43.3204 59.7187L37.1606 41.7943H44.6822L46.0231 48.2682L46.9869 53.8564L48.0554 48.2682L49.6058 41.7943H55.2627L49.92 59.7187H43.3204Z" fill="#5C9738"/>
<path d="M37.1226 59.7187H22.2681V35.0042H36.8083L36.3893 39.9808L29.203 39.7699V44.5357H34.8599V49.4702L29.203 49.0484V54.6577L37.1226 54.4468V59.7187Z" fill="#5C9738"/>
<g clip-path="url(#clip0_303_1774)">
<path fill-rule="evenodd" clip-rule="evenodd" d="M4.40088 7.875C4.40088 7.05952 5.05769 6.39844 5.86791 6.39844H11.736C15.2378 6.39844 18.5961 7.79853 21.0722 10.2907C23.5483 12.7829 24.9393 16.163 24.9393 19.6875C24.9393 20.503 24.2825 21.1641 23.4723 21.1641C22.6621 21.1641 22.0053 20.503 22.0053 19.6875C22.0053 16.9462 20.9233 14.3173 18.9975 12.3789C17.0716 10.4405 14.4596 9.35156 11.736 9.35156H7.33494V11.8125C7.33494 14.5538 8.41688 17.1827 10.3427 19.1211C12.2686 21.0595 14.8806 22.1484 17.6042 22.1484H23.4723C24.2825 22.1484 24.9393 22.8095 24.9393 23.625C24.9393 24.4405 24.2825 25.1016 23.4723 25.1016H17.6042C14.1024 25.1016 10.7441 23.7015 8.26804 21.2093C5.79194 18.7171 4.40088 15.337 4.40088 11.8125V7.875Z" fill="#5C9738"/>
<path fill-rule="evenodd" clip-rule="evenodd" d="M35.2087 17.2266C32.4851 17.2266 29.8731 18.3155 27.9472 20.2539C26.0214 22.1923 24.9394 24.8212 24.9394 27.5625C24.9394 27.7351 24.91 27.9007 24.856 28.0547H29.3405C32.0641 28.0547 34.6761 26.9657 36.602 25.0274C38.5278 23.089 39.6098 20.46 39.6098 17.7188V17.2266H35.2087ZM22.3789 28.5469C22.1466 28.8081 22.0054 29.1531 22.0054 29.5312C22.0054 30.3467 22.6622 31.0078 23.4724 31.0078H29.3405C32.8423 31.0078 36.2006 29.6077 38.6767 27.1155C41.1528 24.6234 42.5438 21.2432 42.5438 17.7188V15.75C42.5438 14.9345 41.887 14.2734 41.0768 14.2734H35.2087C31.7069 14.2734 28.3486 15.6735 25.8725 18.1657C23.3964 20.6579 22.0054 24.038 22.0054 27.5625C22.0054 27.9407 22.1466 28.2856 22.3789 28.5469Z" fill="#5C9738"/>
<path fill-rule="evenodd" clip-rule="evenodd" d="M23.4724 18.2109C24.2826 18.2109 24.9394 18.872 24.9394 19.6875V39.375C24.9394 40.1905 24.2826 40.8516 23.4724 40.8516C22.6622 40.8516 22.0054 40.1905 22.0054 39.375V19.6875C22.0054 18.872 22.6622 18.2109 23.4724 18.2109Z" fill="#5C9738"/>
</g>
<defs>
<clipPath id="clip0_303_1774">
<rect width="46.9451" height="47.25" fill="white"/>
</clipPath>
</defs>
</svg>
